<mxfile host="app.diagrams.net" agent="Mozilla/5.0 (Windows NT 10.0; Win64; x64) AppleWebKit/537.36 (KHTML, like Gecko) Chrome/134.0.0.0 Safari/537.36" version="26.2.9">
  <diagram id="TSSmkDrg0120R5e7NNq-" name="Pengadaan Formula">
    <mxGraphModel dx="1627" dy="1106" grid="1" gridSize="10" guides="1" tooltips="1" connect="1" arrows="1" fold="1" page="1" pageScale="1" pageWidth="850" pageHeight="1100" math="0" shadow="0">
      <root>
        <mxCell id="0" />
        <mxCell id="1" parent="0" />
        <mxCell id="T4pq4K4rqaQYau_GaTnD-1" value="Pengadaan Formula" style="shape=table;childLayout=tableLayout;startSize=40;collapsible=0;recursiveResize=0;expand=0;fontSize=16;" vertex="1" parent="1">
          <mxGeometry x="40" y="40" width="970" height="630" as="geometry" />
        </mxCell>
        <mxCell id="T4pq4K4rqaQYau_GaTnD-2" value="" style="shape=tableRow;horizontal=0;swimlaneHead=0;swimlaneBody=0;top=0;left=0;strokeColor=inherit;bottom=0;right=0;dropTarget=0;fontStyle=0;fillColor=none;points=[[0,0.5],[1,0.5]];portConstraint=eastwest;startSize=0;collapsible=0;recursiveResize=0;expand=0;fontSize=16;" vertex="1" parent="T4pq4K4rqaQYau_GaTnD-1">
          <mxGeometry y="40" width="970" height="590" as="geometry" />
        </mxCell>
        <mxCell id="T4pq4K4rqaQYau_GaTnD-3" value="PPIC" style="swimlane;swimlaneHead=0;swimlaneBody=0;fontStyle=0;strokeColor=inherit;connectable=0;fillColor=none;startSize=40;collapsible=0;recursiveResize=0;expand=0;fontSize=16;" vertex="1" parent="T4pq4K4rqaQYau_GaTnD-2">
          <mxGeometry width="150" height="590" as="geometry">
            <mxRectangle width="150" height="590" as="alternateBounds" />
          </mxGeometry>
        </mxCell>
        <mxCell id="z9CND6TuXU0VorKSIdKT-13" value="Planning Produksi" style="shape=tape;html=1;whiteSpace=wrap;" parent="T4pq4K4rqaQYau_GaTnD-3" vertex="1">
          <mxGeometry x="15" y="51" width="120" height="110" as="geometry" />
        </mxCell>
        <mxCell id="T4pq4K4rqaQYau_GaTnD-4" value="R&amp;D" style="swimlane;swimlaneHead=0;swimlaneBody=0;fontStyle=0;strokeColor=inherit;connectable=0;fillColor=none;startSize=40;collapsible=0;recursiveResize=0;expand=0;fontSize=16;" vertex="1" parent="T4pq4K4rqaQYau_GaTnD-2">
          <mxGeometry x="150" width="450" height="590" as="geometry">
            <mxRectangle width="450" height="590" as="alternateBounds" />
          </mxGeometry>
        </mxCell>
        <mxCell id="z9CND6TuXU0VorKSIdKT-4" value="Pengebonan Bahan Baku" style="whiteSpace=wrap;strokeWidth=1;" parent="T4pq4K4rqaQYau_GaTnD-4" vertex="1">
          <mxGeometry x="175" y="79" width="100" height="54" as="geometry" />
        </mxCell>
        <mxCell id="X_7heQAOQwNQK7jmX3UY-14" value="Preproses R&amp;amp;D" style="swimlane;whiteSpace=wrap;html=1;" parent="T4pq4K4rqaQYau_GaTnD-4" vertex="1">
          <mxGeometry x="65" y="170" width="320" height="140" as="geometry">
            <mxRectangle x="300" y="270" width="120" height="30" as="alternateBounds" />
          </mxGeometry>
        </mxCell>
        <mxCell id="X_7heQAOQwNQK7jmX3UY-3" style="edgeStyle=none;curved=1;rounded=0;orthogonalLoop=1;jettySize=auto;html=1;exitX=0;exitY=0.5;exitDx=0;exitDy=0;entryX=1;entryY=0.5;entryDx=0;entryDy=0;fontSize=12;startSize=8;endSize=8;" parent="X_7heQAOQwNQK7jmX3UY-14" source="z9CND6TuXU0VorKSIdKT-16" target="X_7heQAOQwNQK7jmX3UY-1" edge="1">
          <mxGeometry relative="1" as="geometry" />
        </mxCell>
        <mxCell id="z9CND6TuXU0VorKSIdKT-16" value="Bon, TImbang, Dokumentasi" style="shape=parallelogram;perimeter=parallelogramPerimeter;whiteSpace=wrap;html=1;fixedSize=1;" parent="X_7heQAOQwNQK7jmX3UY-14" vertex="1">
          <mxGeometry x="177.5" y="50" width="120" height="60" as="geometry" />
        </mxCell>
        <mxCell id="X_7heQAOQwNQK7jmX3UY-1" value="Pre Proses&lt;br&gt;(Mixing)" style="shape=parallelogram;perimeter=parallelogramPerimeter;whiteSpace=wrap;html=1;fixedSize=1;" parent="X_7heQAOQwNQK7jmX3UY-14" vertex="1">
          <mxGeometry x="22.5" y="50" width="120" height="60" as="geometry" />
        </mxCell>
        <mxCell id="z9CND6TuXU0VorKSIdKT-14" value="Formula" style="shape=tape;html=1;whiteSpace=wrap;" parent="T4pq4K4rqaQYau_GaTnD-4" vertex="1">
          <mxGeometry x="87.5" y="320" width="120" height="110" as="geometry" />
        </mxCell>
        <mxCell id="X_7heQAOQwNQK7jmX3UY-5" value="Analisa Fisik, Kimia, Organoleptik" style="rhombus;whiteSpace=wrap;html=1;" parent="T4pq4K4rqaQYau_GaTnD-4" vertex="1">
          <mxGeometry x="72.5" y="460" width="150" height="110" as="geometry" />
        </mxCell>
        <mxCell id="X_7heQAOQwNQK7jmX3UY-9" style="edgeStyle=none;curved=1;rounded=0;orthogonalLoop=1;jettySize=auto;html=1;exitX=0.5;exitY=1;exitDx=0;exitDy=0;fontSize=12;startSize=8;endSize=8;entryX=0.5;entryY=0.182;entryDx=0;entryDy=0;entryPerimeter=0;" parent="T4pq4K4rqaQYau_GaTnD-4" source="X_7heQAOQwNQK7jmX3UY-1" target="z9CND6TuXU0VorKSIdKT-14" edge="1">
          <mxGeometry relative="1" as="geometry">
            <mxPoint x="-37" y="340" as="targetPoint" />
          </mxGeometry>
        </mxCell>
        <mxCell id="X_7heQAOQwNQK7jmX3UY-10" value="" style="edgeStyle=none;curved=1;rounded=0;orthogonalLoop=1;jettySize=auto;html=1;fontSize=12;startSize=8;endSize=8;exitX=0.501;exitY=0.802;exitDx=0;exitDy=0;exitPerimeter=0;" parent="T4pq4K4rqaQYau_GaTnD-4" source="z9CND6TuXU0VorKSIdKT-14" target="X_7heQAOQwNQK7jmX3UY-5" edge="1">
          <mxGeometry relative="1" as="geometry" />
        </mxCell>
        <mxCell id="X_7heQAOQwNQK7jmX3UY-7" value="" style="endArrow=classic;html=1;rounded=0;fontSize=12;startSize=8;endSize=8;exitX=0;exitY=0.5;exitDx=0;exitDy=0;entryX=0;entryY=0.5;entryDx=0;entryDy=0;edgeStyle=orthogonalEdgeStyle;" parent="T4pq4K4rqaQYau_GaTnD-4" source="X_7heQAOQwNQK7jmX3UY-5" target="X_7heQAOQwNQK7jmX3UY-1" edge="1">
          <mxGeometry relative="1" as="geometry">
            <mxPoint x="-56" y="330" as="sourcePoint" />
            <mxPoint x="44" y="330" as="targetPoint" />
            <Array as="points">
              <mxPoint x="40" y="515" />
              <mxPoint x="40" y="250" />
            </Array>
          </mxGeometry>
        </mxCell>
        <mxCell id="X_7heQAOQwNQK7jmX3UY-8" value="Tidak OK" style="edgeLabel;resizable=0;html=1;;align=center;verticalAlign=middle;" parent="X_7heQAOQwNQK7jmX3UY-7" connectable="0" vertex="1">
          <mxGeometry relative="1" as="geometry" />
        </mxCell>
        <mxCell id="T4pq4K4rqaQYau_GaTnD-5" value="Logistik" style="swimlane;swimlaneHead=0;swimlaneBody=0;fontStyle=0;strokeColor=inherit;connectable=0;fillColor=none;startSize=40;collapsible=0;recursiveResize=0;expand=0;fontSize=16;" vertex="1" parent="T4pq4K4rqaQYau_GaTnD-2">
          <mxGeometry x="600" width="190" height="590" as="geometry">
            <mxRectangle width="190" height="590" as="alternateBounds" />
          </mxGeometry>
        </mxCell>
        <mxCell id="z9CND6TuXU0VorKSIdKT-5" value="Pengiriman Bahan Sesuai Bon" style="whiteSpace=wrap;strokeWidth=1;" parent="T4pq4K4rqaQYau_GaTnD-5" vertex="1">
          <mxGeometry x="40" y="67" width="110" height="78" as="geometry" />
        </mxCell>
        <mxCell id="T4pq4K4rqaQYau_GaTnD-14" value="Produksi" style="swimlane;swimlaneHead=0;swimlaneBody=0;fontStyle=0;strokeColor=inherit;connectable=0;fillColor=none;startSize=40;collapsible=0;recursiveResize=0;expand=0;fontSize=16;" vertex="1" parent="T4pq4K4rqaQYau_GaTnD-2">
          <mxGeometry x="790" width="180" height="590" as="geometry">
            <mxRectangle width="180" height="590" as="alternateBounds" />
          </mxGeometry>
        </mxCell>
        <mxCell id="z9CND6TuXU0VorKSIdKT-6" value="Pengiriman Formula ke Produksi" style="whiteSpace=wrap;strokeWidth=1;" parent="T4pq4K4rqaQYau_GaTnD-14" vertex="1">
          <mxGeometry x="30" y="476" width="120" height="78" as="geometry" />
        </mxCell>
        <mxCell id="z9CND6TuXU0VorKSIdKT-9" value="" style="curved=1;startArrow=none;endArrow=block;entryX=0;entryY=0.5;rounded=0;exitX=1;exitY=0.5;exitDx=0;exitDy=0;exitPerimeter=0;entryDx=0;entryDy=0;" parent="T4pq4K4rqaQYau_GaTnD-2" source="z9CND6TuXU0VorKSIdKT-13" target="z9CND6TuXU0VorKSIdKT-4" edge="1">
          <mxGeometry relative="1" as="geometry">
            <Array as="points" />
          </mxGeometry>
        </mxCell>
        <mxCell id="z9CND6TuXU0VorKSIdKT-10" value="" style="curved=1;startArrow=none;endArrow=block;entryX=0;entryY=0.5;rounded=0;exitX=1;exitY=0.5;exitDx=0;exitDy=0;entryDx=0;entryDy=0;" parent="T4pq4K4rqaQYau_GaTnD-2" source="z9CND6TuXU0VorKSIdKT-4" target="z9CND6TuXU0VorKSIdKT-5" edge="1">
          <mxGeometry relative="1" as="geometry">
            <Array as="points" />
            <mxPoint x="324" y="90" as="sourcePoint" />
          </mxGeometry>
        </mxCell>
        <mxCell id="X_7heQAOQwNQK7jmX3UY-15" style="edgeStyle=orthogonalEdgeStyle;rounded=0;orthogonalLoop=1;jettySize=auto;html=1;exitX=0.5;exitY=1;exitDx=0;exitDy=0;entryX=1;entryY=0.5;entryDx=0;entryDy=0;fontSize=12;startSize=8;endSize=8;" parent="T4pq4K4rqaQYau_GaTnD-2" source="z9CND6TuXU0VorKSIdKT-5" target="z9CND6TuXU0VorKSIdKT-16" edge="1">
          <mxGeometry relative="1" as="geometry">
            <Array as="points">
              <mxPoint x="695" y="250" />
            </Array>
          </mxGeometry>
        </mxCell>
        <mxCell id="X_7heQAOQwNQK7jmX3UY-11" value="" style="endArrow=classic;html=1;rounded=0;fontSize=12;startSize=8;endSize=8;curved=1;entryX=0;entryY=0.5;entryDx=0;entryDy=0;exitX=1;exitY=0.5;exitDx=0;exitDy=0;" parent="T4pq4K4rqaQYau_GaTnD-2" source="X_7heQAOQwNQK7jmX3UY-5" target="z9CND6TuXU0VorKSIdKT-6" edge="1">
          <mxGeometry relative="1" as="geometry">
            <mxPoint x="114" y="500" as="sourcePoint" />
            <mxPoint x="214" y="500" as="targetPoint" />
          </mxGeometry>
        </mxCell>
        <mxCell id="X_7heQAOQwNQK7jmX3UY-12" value="OK" style="edgeLabel;resizable=0;html=1;;align=center;verticalAlign=middle;" parent="X_7heQAOQwNQK7jmX3UY-11" connectable="0" vertex="1">
          <mxGeometry relative="1" as="geometry">
            <mxPoint x="-171" as="offset" />
          </mxGeometry>
        </mxCell>
      </root>
    </mxGraphModel>
  </diagram>
</mxfile>
